<svg width="390" height="412" viewBox="0 0 390 412" fill="none" xmlns="http://www.w3.org/2000/svg">
<path d="M0.247665 129.692L34.4031 148.873L34.0318 201.591V240.697L0.247665 221.515V129.692Z" fill="#625FF9"/>
<path d="M0.24771 221.02L34.4031 240.202L34.0319 292.92V410.236L0.24771 390.807V221.02Z" fill="white"/>
<path d="M0 129.568L218.174 6.31181L250.721 26.9783L33.5367 148.626L0 129.568Z" fill="#625FF9"/>
<path d="M77.576 328.862L326.725 184.729L389.095 207.735L140.399 350.018L77.576 328.862Z" fill="#2F2BE4"/>
<path d="M34.4031 148.255L251.339 26.7308V118.059L33.5367 240.821L34.4031 148.255Z" fill="#3A36F8"/>
<path d="M34.4028 239.831L251.339 118.307L251.339 287.722L33.5367 411.103L34.4028 239.831Z" fill="#E5E5E5"/>
<path d="M44.4052 81.5526L67.6705 68.5587L124.349 101.724L100.96 113.975L44.4052 81.5526Z" fill="#3C3C3C" fill-opacity="0.5"/>
<path d="M100.836 113.975L123.73 101.848L123.73 154.318L100.836 166.322V113.975Z" fill="#3C3C3C" fill-opacity="0.5"/>
<path d="M89.4509 107.293L100.843 113.729V166.57L89.4509 160.135L89.4509 107.293Z" fill="#3C3C3C" fill-opacity="0.5"/>
<path d="M44.7765 95.0415L44.7766 81.8007L89.6984 107.541L89.4509 120.906L67.0518 107.541L55.5429 100.858L44.7765 95.0415Z" fill="#3C3C3C" fill-opacity="0.5"/>
<path d="M34.403 71.1574L57.6682 58.1635L114.346 91.3289L90.9574 103.58L34.403 71.1574Z" fill="#B5B5B5"/>
<path d="M90.8336 103.58L113.728 91.4526L113.728 143.923L90.8336 155.927V103.58Z" fill="#B5B5B5"/>
<path d="M79.4484 96.8976L90.8409 103.334V156.175L79.4484 149.739L79.4484 96.8976Z" fill="#B5B5B5"/>
<path d="M34.898 84.6462L46.1594 90.7101L46.1593 103.704L34.898 109.892L34.898 84.6462Z" fill="#B5B5B5"/>
<path d="M34.7742 84.6463L34.7743 71.4055L79.6962 97.1458L79.4486 110.51L57.0496 97.1457L45.5407 90.4627L34.7742 84.6463Z" fill="#B5B5B5"/>
<path d="M147.119 22.8942L170.384 9.90026L227.062 43.0657L203.673 55.3171L147.119 22.8942Z" fill="#3C3C3C" fill-opacity="0.5"/>
<path d="M203.55 55.3171L226.444 43.1894L226.444 95.6601L203.55 107.664V55.3171Z" fill="#3C3C3C" fill-opacity="0.5"/>
<path d="M192.164 48.6344L203.557 55.0712V107.911L192.164 101.476L192.164 48.6344Z" fill="#3C3C3C" fill-opacity="0.5"/>
<path d="M147.49 36.3832L147.49 23.1424L192.412 48.8826L192.165 62.2474L169.766 48.8826L158.257 42.1996L147.49 36.3832Z" fill="#3C3C3C" fill-opacity="0.5"/>
<path d="M137.219 12.9939L160.484 0L217.162 33.1654L193.773 45.4168L137.219 12.9939Z" fill="#B5B5B5"/>
<path d="M193.649 45.4169L216.544 33.2891L216.543 85.7598L193.649 97.7637V45.4169Z" fill="#B5B5B5"/>
<path d="M182.264 38.7341L193.657 45.1709V98.0111L182.264 91.576L182.264 38.7341Z" fill="#B5B5B5"/>
<path d="M137.714 26.4827L148.975 32.5465V45.5404L137.714 51.7281L137.714 26.4827Z" fill="#B5B5B5"/>
<path d="M137.59 26.4828L137.59 13.242L182.512 38.9822L182.264 52.347L159.865 38.9822L148.356 32.2992L137.59 26.4828Z" fill="#B5B5B5"/>
<path d="M79.2009 162.485L114.47 143.428V156.298L79.2009 176.469V162.485Z" fill="#FEFEFE" fill-opacity="0.9"/>
<path d="M102.489 162.981L102.489 189.092L90.8335 182.41V169.787L102.489 162.981Z" fill="#FEFEFE" fill-opacity="0.9"/>
<path d="M90.8335 182.286L102.342 188.919L79.5287 201.839V188.721L90.8335 182.286Z" fill="#FEFEFE" fill-opacity="0.9"/>
<path d="M148.255 150.11L159.661 157.059L125.113 176.222L136.847 156.05L148.255 150.11Z" fill="#FEFEFE" fill-opacity="0.9"/>
<path d="M148.003 123.918L159.64 117.564L159.788 157.041L148.003 150.11V123.918Z" fill="#FEFEFE" fill-opacity="0.9"/>
<path d="M125.285 136.524L136.922 130.17V156.298L125.237 175.974L125.285 136.524Z" fill="#FEFEFE" fill-opacity="0.9"/>
<path d="M182.583 117.74L171.225 110.712L205.905 91.7892L194.031 111.879L182.583 117.74Z" fill="#FEFEFE" fill-opacity="0.9"/>
<path d="M182.653 143.933L170.973 150.207L171.098 110.73L182.834 117.742L182.653 143.933Z" fill="#FEFEFE" fill-opacity="0.9"/>
<path d="M205.457 131.484L193.777 137.758L193.958 111.631L205.779 92.0358L205.457 131.484Z" fill="#FEFEFE" fill-opacity="0.9"/>
<path d="M102.466 228.198L182.534 182.781V209.387L102.466 253.938V228.198Z" fill="#767676"/>
<path d="M102.466 267.18L159.763 234.88L182.534 248.369L102.466 292.92V267.18Z" fill="#767676"/>
<path d="M125.045 293.91L182.534 261.363V287.351L125.045 319.774V293.91Z" fill="#767676"/>
<path d="M182.534 209.387V248.369L159.639 235.128L159.64 222.134L182.534 209.387Z" fill="#767676"/>
<path d="M125.566 279.969L125.566 319.402L102.466 332.396L102.466 292.92L125.566 279.969Z" fill="#767676"/>
</svg>
